<?xml version="1.0" encoding="utf-8" ?><svg xmlns="http://www.w3.org/2000/svg" xmlns:xlink="http://www.w3.org/1999/xlink" width="1408" height="1408" viewBox="0 0 1408 1408"><path fill="#B14512" d="M435.391 357.533L644.346 357.481C655.584 357.482 666.809 357.287 678.021 358.138C717.408 361.129 755.457 376.034 783.585 404.402C811.064 432.478 826.2 470.361 825.634 509.642C825.298 554.558 808.55 590.909 776.729 622.032C771.968 619.137 757.757 607.551 752.713 603.624C733.329 588.528 717.386 576.329 696.177 563.935C747.74 534.342 739.915 460.435 681.314 446.1C665.025 442.115 638.198 443.778 620.422 443.794L531.58 443.822C532.03 466.057 531.635 488.344 531.698 510.598C531.764 533.639 532.144 556.654 531.508 579.682C542.081 574.607 547.887 572.819 558.978 569.68C560.4 569.575 567.166 568.221 568.888 567.909L572.458 567.84C578.686 566.982 584.999 567.141 591.291 567.128C620.478 567.962 642.539 578.553 665.922 595.057C672.739 601.41 680.004 606.921 686.297 613.924C687.332 615.076 693.484 621.787 694.409 622.29C697.232 626.08 700.003 629.353 703.057 632.96C705.848 636.462 715.313 650.887 717.296 652.549C759.714 715.661 810.239 814.182 904.682 785.051C923.475 779.254 937.162 769.578 952.474 757.634C946.563 765.747 940.143 772.592 932.713 779.251C897.309 810.984 856.271 827.181 808.844 824.679C735.06 821.983 693.928 764.445 657.003 708.6C637.229 678.694 606.293 630.421 566.582 627.956C555.88 627.292 546.798 630.396 538.497 637.787C528.206 646.949 532.808 661.312 531.757 673.505C531.425 692.003 532.185 710.735 531.797 729.322C521.069 741.015 505.779 755.48 494.345 766.929C474.776 786.692 455.074 806.321 435.239 825.816L435.391 357.533Z"/><path fill="#CF9441" d="M593.505 550.608C604.193 550.635 612.497 551.555 622.845 551.989C628.882 553.137 641.238 555.289 646.532 557.471C654.562 559.127 664.708 563.602 672.107 567.042C690.457 575.573 707.411 587.21 723.606 599.257C747.974 617.383 771.066 637.675 798.545 651.055C823.654 663.281 850.763 663.024 874.363 647.541C888.784 638.081 901.254 625.992 914.528 615.005C945.272 589.764 979.289 575.662 1019.25 584.904C1042.06 590.179 1062.22 601.455 1080.5 615.934C1082.12 617.217 1088.73 622.612 1089.92 623.979C1103.51 635.046 1106.32 640.787 1116.82 651.827C1117.58 655.333 1118.41 660.464 1119.93 664.105C1121.84 668.691 1127.56 674.762 1129.2 679.756C1128.76 680.522 1128.32 681.287 1127.89 682.053C1130.74 687.47 1137.2 693.107 1140.04 697.796L1144.07 702.228C1146.74 705.952 1152.07 714.602 1153.78 718.722C1135.21 694.93 1111.78 672.745 1081.46 666.045C1013.84 651.358 979.704 726.28 928.712 757.947C865.656 797.106 816.118 768.674 775.326 714.268C770.196 707.425 764.522 700.311 759.936 692.867C756.996 689.289 730.054 649.993 729.041 647.429L728.312 645.588C724.463 633.018 698.905 605.859 688.328 596.491C680.71 584.308 647.582 566.395 633.97 561.004C619.869 555.951 607.008 554.435 592.662 551.626L593.505 550.608Z"/><path fill="#E0B374" d="M593.505 550.608C604.193 550.635 612.497 551.555 622.845 551.989C628.882 553.137 641.238 555.289 646.532 557.471C643.637 558.719 632.302 555.302 628.587 554.219C624.671 553.077 621.733 553.296 617.695 553.541C621.726 554.2 622.307 554.148 625.433 556.633C636.445 557.654 640.524 557.447 650.789 562.091C659.594 566.074 670.825 568.165 678.714 574.98C688.645 583.948 687.052 584.38 699.349 590.521L699.292 591.221L698.153 592.092C700.205 597.493 710.032 602.578 712.92 606.645C723.27 621.221 735.264 634.779 743.965 650.387C745.751 653.572 759.448 659.867 760.09 665.383C758.185 664.794 758.006 664.297 756.413 662.914L756.238 663.579C763.895 672.035 763.703 672.806 768.43 683.445C767.26 683.823 767.756 683.589 766.908 684.116C769.467 686.906 773.927 690.606 775.517 693.405L775.436 694.255C772.696 692.345 771.319 691.025 768.886 688.772L768.416 689.618C769.253 690.67 772.047 693.355 771.753 694.674C770.799 698.959 786.025 714.218 786.117 715.175L781.861 712.871C783.228 715.235 787.744 719.424 790.018 722.486L789.372 723.371C779.798 712.153 769.265 701.614 760.542 689.564C756.959 684.613 754.649 680.929 750.509 676.302L750.284 676.666C754.044 681.359 757.96 687.174 759.936 692.867C756.996 689.289 730.054 649.993 729.041 647.429L728.312 645.588C724.463 633.018 698.905 605.859 688.328 596.491C680.71 584.308 647.582 566.395 633.97 561.004C619.869 555.951 607.008 554.435 592.662 551.626L593.505 550.608Z"/><path fill="#E3CBA1" d="M1089.92 623.979C1103.51 635.046 1106.32 640.787 1116.82 651.827C1117.58 655.333 1118.41 660.464 1119.93 664.105C1121.84 668.691 1127.56 674.762 1129.2 679.756C1128.76 680.522 1128.32 681.287 1127.89 682.053C1130.74 687.47 1137.2 693.107 1140.04 697.796L1139.22 697.994C1132.48 690.936 1123.4 681.28 1115.65 675.464C1111.24 663.079 1101.67 653.434 1098.63 638.775L1097.93 638.355C1096.44 640.433 1097.07 642.727 1097.25 645.653C1093.02 638.692 1095.75 638.013 1094.99 631.241C1094.91 630.551 1090.29 626.829 1089.92 623.979Z"/><path fill="#E0B374" d="M1097.25 645.653C1097.07 642.727 1096.44 640.433 1097.93 638.355L1098.63 638.775C1101.67 653.434 1111.24 663.079 1115.65 675.464C1104.9 667.481 1096.16 662.119 1083.32 658.257C1087.68 656.38 1088.52 659.64 1092.82 660.342L1092.73 659.587C1090.83 657.601 1087.67 656.695 1085.02 655.652L1085.37 655.225C1089.47 655.566 1089.67 658.081 1095.52 658.976L1095.96 656.119L1096.88 656.229C1098.06 660.015 1102.09 663.226 1104.9 666.396C1105.72 663.038 1098.45 651.796 1097.25 645.653Z"/><path fill="#E0B374" d="M824.295 751.629C826.58 751.51 840.692 758.428 845.101 759.962C850.684 761.931 856.473 763.258 862.357 763.919C950.513 773.297 981.725 646.971 1068.42 653.655C1071.05 653.858 1079.77 655.434 1081.21 657.316C996.923 641.618 973.404 727.98 907.098 757.54C882.241 768.621 846.445 769.121 824.295 751.629Z"/><path fill="#E0B374" d="M1048.04 649.934C1052.43 649.199 1060.79 649.552 1065.12 650.524C1062.69 651.49 1052.81 650.897 1049.15 651.305C990.078 657.89 962.367 720.203 913.917 746.643C889.519 759.958 868.785 762.549 842.55 755.046C839.746 753.906 830.524 750.538 828.942 749.126C831.497 748.25 844.006 754.417 847.927 755.375C937.444 777.23 970.402 658.875 1048.04 649.934Z"/><path fill="#E0B374" d="M1052.09 645.209C1057.48 644.847 1066.23 646.092 1071.4 647.893L1071.5 648.156L1070.93 647.84C1070.5 648.096 1054.27 646.587 1051.46 646.651C1041.2 646.884 1031.07 649.005 1021.57 652.91C956.457 679.326 934.39 764.019 847.983 750.96C842.288 749.224 835.308 747.168 830.204 744.064C833.483 744.114 838.911 747.003 842.299 747.975C852.719 750.963 863.959 752.453 874.723 751.03C951.714 740.849 971.949 649.806 1052.09 645.209Z"/><path fill="#E0B374" d="M1044.14 636.94C1046.44 636.84 1048.68 636.501 1050.79 637.271C1048.05 638.31 1040.24 638.341 1036.73 638.65C1027.46 639.526 1018.41 641.952 1009.95 645.826C945.78 674.664 919.523 758.869 835.079 735.756C834.471 735.524 833.866 735.284 833.264 735.037C832.226 734.604 829.519 733.571 829.165 732.685C841.068 735.685 851.921 739.496 864.822 738.671C941.946 733.734 963.727 639.434 1044.14 636.94Z"/><path fill="#E0B374" d="M1049.5 641.059C1052.99 641.14 1054.39 641.022 1057.76 641.991C1055.83 642.802 1045.48 642.571 1042.55 642.803C969.797 648.568 942.737 740.914 869.756 746.08C857.35 746.958 846.757 745.247 835.079 741.14C832.1 739.994 830.439 739.194 827.609 737.704L827.662 737.47C837.555 740.602 849.671 744.73 860.01 744.855C945.329 745.891 963.477 644.731 1049.5 641.059Z"/><path fill="#E0B374" d="M1034.2 632.78C1037.42 632.184 1040.64 632.215 1043.76 633.182C1043.44 633.397 1026.93 635.014 1023.96 635.628C964.238 647.985 938.306 714.141 880.994 730.687C865.523 735.153 848.182 734.862 833.066 729.131C830.527 728.336 826.555 727.056 824.438 725.472C826.571 725.428 834.139 728.171 836.741 728.954C848.037 732.365 859.958 733.184 871.615 731.35C935.491 721.424 966.493 637.024 1034.2 632.78Z"/><path fill="#E0B374" d="M1025.08 629.317L1028.98 628.838L1029.26 629.485L1029.77 628.861L1030.33 629.307C1029.42 629.927 1012.92 633.302 1010.39 634.109C943.638 655.385 919.664 739.813 839.287 725.368C837.748 724.968 834.615 724.415 833.885 723.169C845.706 724.767 851.89 727.032 864.301 725.656C931.186 718.238 957.213 637.841 1025.08 629.317Z"/><path fill="#E0B374" d="M987.768 629.722L988.362 630.347C986.352 632.55 981.166 634.202 978.3 635.922C937.489 660.411 914.677 703.369 865.711 713.741L865.134 713.045C867.207 711.388 878.679 709.214 882.498 707.496C924.15 688.761 946.212 649.6 987.768 629.722Z"/><path fill="#E0B374" d="M1000.19 630.417L1001.2 631.181C999.603 632.527 1000.87 631.709 999.237 632.34C964.535 645.701 941.906 676.624 913.227 698.652C905.791 704.363 899.203 708.409 891.573 712.635L890.396 712.082L890.948 711.11C929.712 692.861 951.725 649.777 1000.19 630.417Z"/><path fill="#E0B374" d="M742.007 621.391C745.49 623.504 751.606 628.345 753.931 631.632C752.683 632.223 753.179 632.048 752.206 633.495L751.214 633.268C751.027 635.279 751.487 634.774 750.452 635.664L747.083 632.963L746.639 633.196C747.823 635.294 750.469 637.281 752.359 638.922C751.068 638.367 749.859 637.912 748.551 637.413L748.06 637.898C750.501 639.815 752.645 641.631 754.988 643.669C755.64 644.54 755.357 643.982 755.555 645.458C751.942 643.382 751.863 643.729 747.567 643.499C745.664 641.905 745.866 640.813 745.368 638.522C745.047 637.048 741.266 634.136 739.524 632.2L740.154 631.306C741.048 631.555 741.884 631.824 742.746 632.156C741.213 629.652 740.423 628.713 739.745 625.919L742.309 624.259C743.686 624.625 743.006 624.488 744.345 624.682C743.402 623.089 743.167 622.852 742.007 621.391Z"/><path fill="#E3CBA1" d="M777.915 703.654C781.884 704.431 788.189 711.986 791.376 715.305C787.573 714.574 780.814 706.702 777.915 703.654Z"/><path fill="#E0B374" d="M991.748 600.27L994.338 600.339L994.498 600.885C991.248 601.742 987.975 602.513 984.684 603.198L982.578 603.563L982.095 603.101C985.193 601.726 988.445 601.083 991.748 600.27Z"/><path fill="#E0B374" d="M808.385 741.224C810.959 740.948 812.635 742.258 814.177 744.379L813.904 745.467C811.822 744.33 810.196 742.77 808.385 741.224Z"/><path fill="#B14512" d="M214.863 871.33C225.178 871.204 235.495 871.192 245.811 871.291C261.432 871.361 277.055 869.636 291.138 877.291C314.335 889.901 315.13 926.045 292.552 939.537C288.265 942.099 284.897 942.835 280.155 943.937C291.042 955.401 306.16 971.975 316.016 984.1C312.838 984.256 309.321 984.253 306.109 984.321L289.484 984.208C286.17 981.473 279.737 973.805 276.665 970.292C269.653 962.207 262.57 954.185 255.416 946.225C249.344 945.951 241.692 946.185 235.503 946.201C235.792 958.897 235.864 971.598 235.719 984.297C229.486 983.916 220.504 984.103 213.961 983.962C213.588 953.617 214.154 904.409 214.082 872.428C214.342 872.062 214.603 871.696 214.863 871.33ZM235.552 926.775C241.766 926.727 247.989 926.849 254.193 926.758C264.46 926.608 274.23 928.536 282.475 921.261C286.601 916.078 287.887 911.247 286.512 904.691C282.645 886.269 250.014 891.661 235.466 891.491C235.653 903.251 235.682 915.014 235.552 926.775Z"/><path fill="#B14512" d="M577.158 902.229C578.078 902.139 579.001 902.086 579.925 902.072C591.753 901.967 598.794 905.825 606.951 913.747L607.512 904.088C613.864 903.931 620.574 904.073 626.955 904.103C626.405 930.481 626.884 957.825 626.7 984.331C620.453 984.193 613.963 984.316 607.697 984.351L607.06 972.946L603.519 977.347C590.458 988.898 570.072 988.622 556 979C537.356 966.251 535.288 934.567 548.186 917.16C555.582 907.179 565.39 903.884 577.158 902.229ZM588.646 966.894C601.275 963.919 609.107 951.277 606.146 938.645C603.185 926.013 590.55 918.167 577.915 921.115C565.261 924.067 557.401 936.725 560.367 949.376C563.332 962.027 575.998 969.873 588.646 966.894Z"/><path fill="#CF9441" d="M1173.65 903.932C1180.1 903.258 1189.64 903.503 1196.09 903.908C1195.41 907.105 1193.55 911.707 1192.39 914.891C1189.55 921.786 1186.29 931.979 1183.73 939.216L1167.92 984.301C1160.09 984.254 1152.74 984.591 1144.87 984.014C1139.28 971.144 1133.44 950.468 1129.83 936.995C1125.75 951.885 1120.42 969.723 1114.66 983.99C1107.13 984.347 1099.6 984.43 1092.07 984.237C1089.05 977.093 1064.02 906.311 1064.44 904.252L1066.48 903.661L1085.71 903.709C1087.6 907.121 1090.7 917.897 1092.04 922.217C1096.2 935.701 1100.23 949.228 1104.12 962.793C1108.13 944.504 1116.17 922.958 1121.06 904.125C1126.88 903.671 1132.49 903.517 1138.29 904.146C1144.43 922.913 1149.58 943.412 1155.64 962.533C1161.42 942.932 1167.43 923.398 1173.65 903.932Z"/><path fill="#CF9441" d="M1010.62 902.843C1033.51 898.667 1055.44 913.879 1059.55 936.783C1063.66 959.688 1048.38 981.576 1025.47 985.62C1002.64 989.647 980.866 974.448 976.772 951.636C972.679 928.824 987.816 907.001 1010.62 902.843ZM1023.19 966.558C1029.69 964.231 1033.92 961.343 1036.94 954.776C1039.91 948.28 1040.05 940.848 1037.34 934.242C1032.82 923.449 1024.78 920.821 1014.03 921.337C1007.48 923.054 1003.31 925.734 999.884 931.675C993.521 942.716 997.016 958.836 1008.71 964.786C1013.91 967.434 1017.66 966.814 1023.19 966.558Z"/><path fill="#B14512" d="M357.35 901.572C359.015 901.533 360.681 901.563 362.344 901.662C393.028 903.621 400.88 924.88 399.162 951.522L337.043 951.403C345.51 972.078 365.896 970.589 382.413 960.354L386.864 964.336L395.355 972.567C385.88 981.313 379.767 983.761 366.545 985.64C324.509 991.613 301.797 947.675 326.204 915.394C333.505 905.738 345.198 902.536 357.35 901.572ZM337.546 934.452L363.516 934.383L380.134 934.586C375.929 920.867 367.391 919.341 354.465 919.979C347.244 921.876 342.928 924.707 339.117 931.446C338.567 932.434 338.043 933.436 337.546 934.452Z"/><path fill="#B14512" d="M760.09 901.593C790.763 902.021 805.004 922.283 800.773 951.494L738.898 951.39C747.005 972.506 767.851 969.733 784.388 960.376L790.179 965.91C792.478 968.16 794.744 970.446 796.973 972.766C780.678 988.818 749.002 991.059 731.532 975.7C714.827 961.015 713.331 931.688 728.193 915.175C737.201 905.166 747.028 902.456 760.09 901.593ZM739.157 934.439L766.901 934.461L782.339 934.495C775.992 920.146 770.02 919.059 754.972 920.05C746.805 923.003 743.112 926.259 739.157 934.439Z"/><path fill="#B14512" d="M487.522 901.582C520.608 900.761 531.479 921.856 529.835 951.451L467.559 951.411C475.175 972.241 497.177 970.299 512.91 960.308L516.775 963.854L525.687 972.765C509.258 988.175 480.329 990.936 462.004 977.311C443.762 963.432 441.971 933.049 456.217 915.807C464.419 905.881 475.294 902.613 487.522 901.582ZM467.83 934.535C476.527 934.477 485.467 934.317 494.141 934.426L510.713 934.548C506.285 920.685 497.417 919.191 484.341 919.991C475.389 922.461 471.852 926.258 467.83 934.535Z"/><path fill="#CF9441" d="M848.947 871.261C857.139 870.982 867.02 871.402 875.453 871.432C893.782 871.538 912.112 871.431 930.439 871.111C930.798 877.241 930.487 886.136 930.462 892.469L871.051 892.461C871.095 902.257 871.083 912.053 871.016 921.848C889.619 921.828 909.013 921.408 927.501 921.594L927.463 941.972C909.209 941.478 889.369 941.883 871.067 941.979L871.283 984.335C863.694 984.387 856.508 984.431 848.912 984.135C849.876 947.448 847.725 907.463 848.947 871.261Z"/><path fill="#B14512" d="M668.881 902.23C683.302 900.723 694.76 903.614 705.925 912.849C702.686 917.083 698.788 921.656 695.39 925.834C666.628 906.925 643.919 931.828 676.691 934.746C697.341 936.584 717.353 944.453 707.689 969.901C702.402 983.822 686.182 986.617 672.944 986.805C657.374 985.935 649.439 983.038 638.137 972.417C641.691 967.654 644.893 962.645 648.154 957.676C649.631 958.796 651.119 959.9 652.62 960.988C659.501 965.957 672.467 971.11 680.306 968.417C698.779 962.071 688.325 952.164 673.699 951.81C657.636 951.421 636.853 942.383 641.541 922.831C644.978 908.497 655.475 904.38 668.881 902.23Z"/><path fill="#B14512" d="M413.226 871.279C419.553 871.193 427.838 870.846 433.982 871.445C433.159 902.206 434.196 933.284 433.856 964.072C433.784 970.545 434.247 977.946 433.515 984.275C426.783 984.293 420.052 984.229 413.322 984.084C412.759 946.952 413.303 908.567 413.226 871.279Z"/><path fill="#CF9441" d="M943.456 871.233C950.231 871.071 957.009 871.077 963.785 871.25C963.799 906.547 964.948 949.608 963.526 984.332L943.424 984.225C942.833 947.194 943.235 908.319 943.456 871.233Z"/><path fill="#B14512" d="M798.232 1021.04C805.18 1020.64 811.936 1019.91 812.008 1029.28L812.029 1032.02L812.03 1033.38L812.812 1033.78C818.915 1018.11 825.528 1016.3 836.69 1029.63C837.006 1027.64 837.407 1022.23 839.58 1021.57C843.162 1020.49 849.554 1020.4 850.46 1025.1C851.402 1029.99 847.296 1035.18 849.683 1039.87L851.562 1040.37C856.826 1037.42 856.734 1026.49 861.444 1021.85L862.735 1021.95C865.328 1024.87 869.439 1037.52 870.156 1041.8L869.251 1041.84C866.895 1039.49 865.375 1037.42 862.191 1036.74C856.424 1037.71 854.458 1044.37 849.056 1042.11C844.844 1040.34 846.826 1034.19 840.843 1034.02C839.081 1037.26 841.272 1039.04 839.681 1041.99C836.834 1040.98 837.637 1038.44 834.348 1036.15C828.946 1041.26 828.769 1042.32 821.825 1042.19C818.701 1040.62 818.911 1040.73 816.808 1037.78L816.057 1036.72C813.06 1035.6 811.46 1040.83 806.221 1042.23C791.272 1046.21 790.929 1028.13 780.205 1042.34C772.005 1041.89 764.096 1042.06 755.912 1041.79C755.656 1037.26 754.958 1026.48 756.985 1022.64C759.108 1025.26 758.605 1035.59 758.601 1039.5L767.957 1039.97C767.792 1033.32 767.413 1028.72 769.01 1022.22L769.57 1022.68C770.597 1028.55 770.197 1033.61 769.981 1039.51C770.872 1039.53 776.358 1039.45 776.654 1039.34C782.033 1037.37 782.614 1024.5 787.339 1021.85C788.542 1022.33 789.19 1022.55 789.638 1023.93C791.8 1030.61 794.242 1036.58 797.419 1042.85C798.725 1036.3 798.296 1027.85 798.232 1021.04ZM827.108 1039.62C835.392 1032.98 832.774 1023.58 821.99 1023.59C813.983 1029.86 816.648 1039.75 827.108 1039.62ZM846.552 1029.35C848.111 1026.77 848.154 1027.59 847.889 1025.15C846 1023.54 844.183 1023.65 841.654 1023.35C841.414 1025.75 840.654 1029.17 841.842 1031.04C844.075 1031.14 844.345 1030.75 846.552 1029.35Z"/><path fill="#E8E8DD" fill-opacity="0.85882354" d="M633.97 561.004C647.582 566.395 680.71 584.308 688.328 596.491C684.927 598.143 683.274 596.245 678.69 599.938C681.074 604.782 694.361 621.599 694.409 622.29C693.484 621.787 687.332 615.076 686.297 613.924C680.004 606.921 672.739 601.41 665.922 595.057C665.04 592.756 655.862 584.792 653.556 582.884C646.058 576.846 628.77 566.094 618.759 566.316C611.669 566.474 597.357 565.633 590.56 566.25L591.291 567.128C584.999 567.141 578.686 566.982 572.458 567.84C575.801 565.138 594.149 565.435 599.317 564.705C603.047 564.639 609.774 562.509 613.169 562.878C624.73 564.136 624.224 569.216 633.97 561.004Z"/><path fill="#B14512" d="M470.293 1021.08C473.522 1020.41 478.191 1019.64 481.157 1021.32L481.284 1022.64C479.78 1023.62 475.998 1023.46 473.667 1023.68L472.371 1025.26C471.895 1030.1 477.261 1028.78 480.589 1030.61L480.356 1032.06C478.436 1033.26 476.088 1032.88 473.698 1032.84L472.957 1033.68C472.816 1036.05 472.509 1036.98 473.791 1038.96C476.049 1040.18 480.993 1039.61 483.726 1039.64C485.23 1036.23 486.462 1032.85 487.761 1029.36C488.734 1026.29 489.054 1023.87 491.77 1022.46L493.238 1023.04C496.827 1027.18 499.079 1036.33 499.831 1041.72L499.078 1041.97C497.736 1040.21 496.605 1038.77 495.156 1037.1C490.305 1035.46 488.064 1036.96 485.717 1041C482.673 1042.6 450.534 1042.03 443.881 1042.11C444.066 1034.88 442.821 1029.11 444.591 1022.24C446.292 1020.29 446.11 1020.9 449.43 1020.36C450.862 1020.27 458.327 1021.01 460.581 1021.15C461.017 1025.62 460.565 1036.69 462.232 1039.36C465.16 1039.59 465.441 1039.74 468.042 1038.62C471.531 1035.1 470.239 1026.84 470.293 1021.08ZM445.125 1035.14C447.539 1041.61 451.324 1039.79 457.691 1039.3C457.852 1035.66 458.8 1026.34 456.901 1023.82L455.193 1023.45L447.209 1023.63C445.61 1025.55 445.617 1026.76 446.595 1029.12C449.428 1030.13 451.661 1029.42 453.834 1030.93L453.727 1032.16C449.823 1033.32 446.938 1031.63 445.125 1035.14ZM493.457 1035.52C496.305 1032.64 493.814 1029.45 491.52 1026.91C490.454 1029.07 488.982 1031.3 489.31 1033.57C491.024 1035.39 490.575 1034.83 493.457 1035.52Z"/><path fill="#B14512" d="M559.241 1036.49C560.419 1032.73 562.049 1023.31 564.74 1021.28L565.872 1021.62L567.388 1024.62C570.397 1025.36 575.167 1019.43 580.176 1021.17C586.143 1023.24 590.843 1028.68 589.166 1035.14L588.378 1035.92C570.164 1054.23 571.133 1032.72 564.904 1028.85C562.543 1031.25 562.813 1039.05 559.257 1042.1C556.115 1039.83 554.977 1032.12 553.964 1027.89C551.294 1031.75 549.366 1040.78 546.333 1041.6C544.16 1039.37 540.604 1024.27 540.282 1020.71C545.754 1023.31 543.021 1029.45 546.213 1034.24C550.502 1031.79 549.566 1023.48 553.373 1021.59C556.792 1023.98 558.001 1032.03 559.241 1036.49ZM580.797 1039.56C588.981 1032.44 585.544 1022.63 574.595 1023.72C568.172 1030.94 569.192 1040.12 580.797 1039.56Z"/><path fill="#E8E8DD" fill-opacity="0.72941178" d="M586.131 551.885C588.827 551.271 590.757 550.983 593.505 550.608L592.662 551.626C607.008 554.435 619.869 555.951 633.97 561.004C624.224 569.216 624.73 564.136 613.169 562.878C609.774 562.509 603.047 564.639 599.317 564.705C594.149 565.435 575.801 565.138 572.458 567.84L568.888 567.909C572.695 560.527 578.903 564.163 586.131 551.885Z"/><path fill="#B14512" d="M719.328 1020.93C722.906 1020.96 724.673 1021.2 727.596 1023.9C733.453 1029.31 732.844 1025.96 738.516 1022.62C743.626 1019.61 749.979 1020.32 752.558 1025.61C753.954 1028.5 754.139 1031.84 753.07 1034.87C750.808 1041.1 744.335 1043.86 738.228 1041.43C733.794 1039.67 733.312 1034.05 731.417 1030.28C730.312 1028.08 729.214 1028.04 727.131 1027.21C717.801 1018.03 708.974 1029.19 716.455 1038.14C720.614 1040.29 724.641 1037.86 729.466 1036.69L729.226 1037.71C716.073 1052.18 700.629 1028.58 719.328 1020.93ZM745.119 1039.58C753.195 1033.38 751.338 1023.46 741.057 1023.52C731.778 1029.54 734.582 1039.86 745.119 1039.58Z"/><path fill="#B14512" d="M951.766 1020.45C956.524 1019.89 959.591 1020.46 964.36 1021.16C967.622 1024.28 964.951 1031.22 966.392 1037.28C969.128 1039.46 972.009 1039.55 974.703 1037.06C975.449 1034.45 975.136 1024.92 975.181 1021.58C992.651 1017.67 991.114 1023.02 996.909 1036.85C999.147 1032.81 1001.59 1024.29 1004.77 1021.62C1004.88 1025.66 1000.28 1040.22 996.713 1042.05C992.442 1039.24 992.595 1029.92 989.561 1025.5C988.029 1023.28 988.838 1023.98 985.708 1023.13C984.042 1023.22 978.907 1023.14 978.407 1025.02C976.778 1031.13 983.086 1028.07 985.514 1031.77C983.7 1034.07 981.352 1031.57 978.503 1033.7C978.082 1036.35 978.57 1037.71 980.728 1039.33C984.751 1039.62 985.805 1039.76 989.679 1040.72L990.6 1040.95C982.972 1042.85 971.143 1042.22 963.138 1042.01C963.101 1037.41 964.101 1025.73 961.503 1022.91C958.145 1022.92 950.211 1023.26 950.945 1028.02C954.582 1031.8 955.052 1027.85 958.97 1030.52C958.689 1032.76 959.201 1031.93 957.615 1033.22C955.699 1032.88 954.645 1032.53 952.735 1032.97C951.241 1034.63 951.434 1035.55 951.292 1037.81C952.234 1039.17 957.219 1039.67 960.13 1040.93C957.841 1042.75 951.872 1041.95 948.754 1041.76C948.792 1036.12 947.697 1027.68 949.154 1022.21C949.48 1020.98 950.096 1021.16 951.766 1020.45Z"/><path fill="#E8E8DD" fill-opacity="0.51764709" d="M688.328 596.491C698.905 605.859 724.463 633.018 728.312 645.588C717.611 643.856 714.897 629.537 709.226 622.586C707.093 619.972 701.638 619.426 698.543 615.509C695.964 612.247 688.451 605.113 685.143 602.733C689.867 611.587 702.763 621.738 703.057 632.96C700.003 629.353 697.232 626.08 694.409 622.29C694.361 621.599 681.074 604.782 678.69 599.938C683.274 596.245 684.927 598.143 688.328 596.491Z"/><path fill="#B14512" d="M1044.49 1020.44C1052.03 1019.42 1067.1 1020.27 1072.17 1026.3C1077.04 1032.1 1070.92 1038.78 1066.31 1042.05C1062.83 1042.12 1059.02 1042.03 1055.52 1042C1055.65 1038.51 1056.89 1024.55 1054.17 1022.73L1053.14 1023.41C1050.09 1023.65 1048.56 1023.36 1045.08 1023.85C1043.65 1026.13 1043.79 1025 1043.81 1027.29C1045.65 1029.08 1049.38 1028.94 1052.05 1029.1C1052.7 1030.45 1052.44 1029.78 1051.76 1031.92C1048.5 1033.94 1048.36 1031.86 1044.63 1033.6C1040.64 1042.18 1050.86 1038.5 1053.25 1040.2L1053.27 1041.53C1051.5 1042.39 1044.1 1042.11 1041.64 1042.11C1041.63 1036.25 1040.84 1027.98 1042.11 1022.22C1042.37 1021.01 1042.9 1021.19 1044.49 1020.44ZM1068.04 1037.57C1074.4 1028.37 1067.71 1024.31 1059.28 1023.32C1058.58 1030.89 1055.36 1044.73 1068.04 1037.57Z"/><path fill="#CF9441" d="M1088.08 1028.77C1112.84 1027.71 1138.09 1030.35 1162.91 1029.64C1172.4 1029.36 1184.11 1030.39 1193.62 1031.54L1192.3 1031.93C1163.49 1031.72 1132.9 1034.91 1103.87 1034.66C1098.7 1034.62 1094.08 1035.11 1088.83 1034.51C1087.69 1032.51 1088.12 1031.44 1088.08 1028.77Z"/><path fill="#E8E8DD" fill-opacity="0.43529412" d="M703.057 632.96C702.763 621.738 689.867 611.587 685.143 602.733C688.451 605.113 695.964 612.247 698.543 615.509C701.638 619.426 707.093 619.972 709.226 622.586C714.897 629.537 717.611 643.856 728.312 645.588L729.041 647.429C727.571 648.181 727.094 648.416 725.481 648.586C722.253 648.926 719.952 650.935 717.296 652.549C715.313 650.887 705.848 636.462 703.057 632.96Z"/><path fill="#CF9441" d="M316.089 1028.83C317.471 1028.79 318.41 1028.9 319.803 1029C322.039 1030.45 321.31 1029.51 322.295 1031.74C319.522 1036.39 297.07 1034.14 291.058 1034L226.359 1032.01C223.082 1032.02 220.523 1031.95 217.254 1031.71C218.677 1030.39 306.273 1029.01 316.089 1028.83Z"/><path fill="#B14512" d="M656.941 1021.33C660.678 1020.62 664.507 1021.99 666.942 1024.91C669.378 1027.83 670.036 1031.84 668.662 1035.39C667.287 1038.94 664.096 1041.46 660.328 1041.98C654.707 1042.75 649.495 1038.9 648.577 1033.3C647.658 1027.7 651.368 1022.39 656.941 1021.33ZM660.476 1039.86C669.746 1034.36 667.511 1025.42 657.688 1022.91C648.966 1029.31 649.277 1039.06 660.476 1039.86Z"/><path fill="#B14512" d="M901.426 1021C906.672 1020.9 910.098 1021.69 912.466 1026.92C913.784 1029.75 913.856 1033.01 912.663 1035.91C911.22 1039.51 909.14 1040.85 905.747 1042.17C892.083 1042.46 887.771 1027.43 901.426 1021ZM906.454 1039.5C914.274 1032.56 911.457 1022.5 901.269 1023.58C893.207 1030.47 895.032 1039.92 906.454 1039.5Z"/><path fill="#B14512" d="M356.99 1020.78C360.52 1024.36 354.551 1040.63 365.72 1039.38C370.442 1035.47 367.012 1025.04 369.187 1021.48L370.21 1021.6C371.898 1023.27 371.925 1023.57 372.773 1025.71L373.004 1026.31C375.903 1021.67 379.928 1020.11 385.097 1021.99C387.116 1024.1 386.502 1022.89 387.017 1025.75L386.412 1026.1C382.654 1024.43 381.325 1022.84 377.589 1024.89C377.607 1028.46 384.87 1029.76 386.948 1032.68C386.95 1032.69 388.048 1035.95 388.143 1036.23C385.862 1041.88 381.642 1043.67 376.216 1040.85C374.604 1038.98 374.664 1039.15 374.464 1036.69C376.175 1036.42 377.95 1038.83 381.594 1039.72C384.002 1038.81 382.93 1039.49 384.74 1037.34C385.572 1031.24 377.959 1034.79 374.679 1029.22C374.108 1028.25 373.781 1027.87 372.951 1027.13C372.706 1028.82 372.439 1030.5 372.151 1032.19C368.762 1051.67 349.783 1040.73 356.99 1020.78Z"/><path fill="#E8E8DD" fill-opacity="0.98823529" d="M591.291 567.128L590.56 566.25C597.357 565.633 611.669 566.474 618.759 566.316C628.77 566.094 646.058 576.846 653.556 582.884C655.862 584.792 665.04 592.756 665.922 595.057C642.539 578.553 620.478 567.962 591.291 567.128Z"/><path fill="#B14512" d="M590.985 1021.22C603.253 1020.1 608.65 1022.55 601.658 1033.76C600.585 1035.49 603.102 1039.04 604.097 1040.97L603.599 1041.81L601.341 1041.48C599.695 1038.45 598.844 1037.14 596.786 1034.38L596.941 1034.69L595.107 1033.57C594.882 1033.88 593.094 1040.44 592.435 1042.17L591.643 1042.01C589.785 1036.29 590.74 1027.52 590.985 1021.22Z"/><path fill="#B14512" d="M671.21 1020.55C674.54 1022.36 676.435 1033.24 677.4 1037.24C679.023 1033.02 680.295 1025.37 683.212 1022.24L684.41 1022.54C687.03 1026.46 687.565 1030.51 688.686 1035.14C691.771 1030.57 692.694 1024.18 695.211 1021.71C696.23 1023.41 695.651 1025.15 695.362 1027.25C693.575 1032.14 693.081 1036.97 689.862 1040.99L688.685 1040.86C686.138 1036.91 684.82 1031.08 683.446 1026.43C681.531 1031 679.649 1038.18 677.603 1043.56C674.654 1038.42 670.887 1026.13 671.21 1020.55Z"/><path fill="#B14512" d="M427.071 1021.14C436.314 1020.48 446.734 1023.58 437.119 1033.82L436.524 1034.44C437.859 1036.74 439.585 1039.28 440.137 1041.83L439.345 1042.14L437.534 1041.31C436.153 1038.86 433.984 1033.56 430.779 1034.24C429.43 1036.36 429.331 1039.1 428.986 1041.66L428.261 1042.1C426.381 1039.19 427.053 1025.55 427.071 1021.14ZM436.592 1028.82C437.817 1026.25 437.767 1027.48 437.311 1025.09C435.192 1023.26 432.341 1023.54 429.541 1023.59C429.533 1026.31 429.194 1028.04 430.685 1030.25C433.455 1031.35 434.141 1030.68 436.592 1028.82Z"/><path fill="#B14512" d="M351.556 1018.79C351.914 1022.48 352.812 1039.85 350.583 1042.01L349.656 1041.44C349.568 1041.06 349.604 1041.3 349.636 1040.71C349.513 1037.88 349.662 1035.07 347.832 1032.99C346.003 1034.2 343.385 1040.59 342.14 1043.12C340.247 1040.03 336.93 1032.26 335.134 1028.52C334.768 1032.26 335.311 1037.42 333.489 1040.51C331.369 1037.64 332.033 1024.91 332.473 1021.09C336.394 1022.65 340.178 1033.35 342.126 1037.76C344.907 1031.73 348.068 1024.3 351.556 1018.79Z"/><path fill="#B14512" d="M1014.92 1021.19L1016.43 1021.74C1018.99 1024.57 1023.42 1037.2 1023.84 1041.53L1023 1042.16C1019.57 1039.91 1022.07 1038.55 1018.24 1036.74C1017.58 1036.74 1016.92 1036.76 1016.26 1036.79C1011.41 1037.04 1009.63 1040.81 1005.97 1044.79C1007.79 1039.16 1012.23 1025.88 1014.92 1021.19Z"/><path fill="#B14512" d="M519.122 1022.33C521.911 1020.03 527.046 1019.62 530.176 1021.61L530.355 1022.34C526.714 1025.61 525.236 1020.95 521.752 1025.45C521.831 1028.96 526.308 1029.49 529.388 1030.67L529.474 1032.22C526.246 1034.57 525.109 1031.41 521.968 1034.47C521.577 1037 521.391 1035.8 522.762 1038.16C525.657 1040.19 526.899 1039.3 530.284 1040.06L530.538 1041.01C527.856 1043 521.81 1042.17 518.225 1041.97C518.631 1036.59 518.907 1033.98 518.314 1028.67L519.122 1022.33Z"/><path fill="#B14512" d="M514.474 1034.68C508.931 1033.05 502.2 1031.78 502.695 1024.57C504.988 1020.63 509.174 1020.58 513.183 1021.47C515.235 1023.47 516.621 1023.91 516.629 1026.89C513.139 1026.55 508.816 1020.68 505.059 1025.43C506.991 1029.39 516.442 1030.36 517.839 1036.49C515.811 1042.53 506.578 1044.92 502.896 1037.34C505.829 1038.39 506.535 1038.57 509.622 1038.94C511.94 1038.33 512.886 1036.61 514.474 1034.68Z"/><path fill="#B14512" fill-opacity="0.98823529" d="M918.288 1045.15C916.778 1040.74 915.457 1025.62 917.544 1021.63C921.23 1022.97 926.562 1032.81 929.055 1036.64C929.502 1032.1 929.683 1027.97 930.234 1023.29L930.896 1022.43L930.614 1021.78C932.449 1024.55 932.382 1037.03 932.521 1041.03L932.015 1043.71C927.399 1040.05 923.39 1031.6 919.13 1026.09C919.046 1032.45 918.64 1038.8 918.288 1045.15Z"/><path fill="#B14512" fill-opacity="0.98823529" d="M610.803 1029.3C612.744 1027.32 618.289 1020.67 620.886 1021.35C619.895 1024.34 615.333 1027.43 612.909 1031.41C613.602 1033.64 617.187 1036.89 618.98 1038.75L620.737 1040.84L620.446 1041.73C616.572 1040.99 613.102 1036.18 610.734 1033.13C610.702 1036.26 610.916 1037.96 609.77 1040.85L608.849 1041.05C605.834 1035 607.001 1026.81 608.482 1020.57L609.472 1021.33C610.745 1023.67 610.63 1026.58 610.803 1029.3Z"/><path fill="#B14512" d="M405.101 1020.91C410.462 1021.04 412.329 1021.66 415.257 1026.4C413.031 1028.03 406.711 1020.59 401.549 1026.21C396.318 1031.92 400.532 1040.28 407.871 1039.31C410.627 1038.01 414.604 1035.33 417.293 1033.63C415.753 1036.37 414.575 1038.98 411.783 1040.71C403.176 1046.02 394.139 1036.66 397.278 1027.86C398.694 1023.89 401.352 1022.5 405.101 1020.91Z"/><path fill="#B14512" d="M625.769 1020.54C629.165 1020.13 633.472 1019.31 636.167 1021.6L635.938 1022.71C633.005 1024.38 629.751 1022.67 626.787 1024.09C626.51 1026.23 626.503 1026.08 627.161 1028.14C628.99 1029.96 631.076 1029.83 633.578 1030.28L633.91 1031.52L633.027 1032.6C622.323 1032.35 628.335 1036.07 625.762 1041.83L624.744 1042.03C623.249 1039.17 623.69 1024.9 624.401 1021.4L625.769 1020.54Z"/><path fill="#B14512" d="M879.85 1020.53C882.233 1020.1 884.178 1019.76 885.67 1021.75L885.351 1022.65C883.093 1023.09 882.688 1023.08 880.56 1024.08C878.098 1027.85 882.779 1039.14 877.579 1042.82C876.674 1037.92 877.811 1025.39 876.39 1023.34C874.556 1023.35 873.858 1023.35 872.053 1023.11L871.86 1021.99C873.433 1020.91 877.712 1020.76 879.85 1020.53Z"/><path fill="#B14512" d="M1033.82 1020.54C1035.82 1019.8 1038.38 1019.85 1039.43 1021.96L1038.81 1022.89C1038.13 1022.99 1033.79 1023.47 1033.75 1024.41C1033.56 1029.03 1034.86 1038.92 1032.29 1042.88C1030.07 1039.15 1031.62 1029.7 1031.15 1024.56C1029.34 1022.79 1029.21 1023.36 1025.93 1023.05L1025.78 1022.02C1027.46 1021.16 1031.74 1020.81 1033.82 1020.54Z"/><path fill="#B14512" d="M638.768 1020.78L639.728 1021.59C641.359 1025.94 640.569 1034.64 640.352 1039.47C644.469 1039.67 645.415 1039.11 648.418 1041.23C645.025 1042.49 641.645 1042.13 637.962 1042.1C637.787 1036.89 637.105 1025.08 638.768 1020.78Z"/><path fill="#B14512" d="M391.939 1020.72L392.827 1021.68C394.597 1027.27 393.89 1036.93 392.794 1042.63L391.474 1041.4C390.309 1035.62 389.997 1026.31 391.939 1020.72Z"/><path fill="#B14512" d="M888.371 1020.56L889.855 1021.7C891.908 1028.5 890.593 1035.03 890.018 1042.22C886.344 1041.3 887.892 1024.13 888.371 1020.56Z"/><defs><linearGradient id="gradient_0" gradientUnits="userSpaceOnUse" x1="934.26056" y1="1036.0895" x2="931.61444" y2="1036.723"><stop offset="0" stop-color="#F2EBE4" stop-opacity="0"/><stop offset="1" stop-color="#EFECE8" stop-opacity="0.06666667"/></linearGradient></defs><path fill="url(#gradient_0)" d="M932.521 1041.03C932.844 1037.85 933.111 1034.65 933.32 1031.45C934.191 1035.38 936.893 1043.22 935.122 1046.2L934.088 1046.13C933.7 1045.69 932.255 1044.09 932.015 1043.71L932.521 1041.03Z"/><path fill="#E8E8DD" fill-opacity="0.035294119" d="M513.183 1021.47C515.389 1020.98 516.478 1020.45 518.465 1021.43L519.122 1022.33L518.314 1028.67L516.629 1026.89C516.621 1023.91 515.235 1023.47 513.183 1021.47Z"/></svg>